<svg width="24" height="24" viewBox="0 0 24 24" fill="none" xmlns="http://www.w3.org/2000/svg">
  <path d="M12 3C7.58172 3 4 6.58172 4 11C4 15.4183 7.58172 19 12 19C16.4183 19 20 15.4183 20 11C20 6.58172 16.4183 3 12 3Z" stroke="white" stroke-width="2" stroke-linecap="round" stroke-linejoin="round"/>
  <path d="M8 10C8.55228 10 9 9.55228 9 9C9 8.44772 8.55228 8 8 8C7.44772 8 7 8.44772 7 9C7 9.55228 7.44772 10 8 10Z" fill="white"/>
  <path d="M16 10C16.5523 10 17 9.55228 17 9C17 8.44772 16.5523 8 16 8C15.4477 8 15 8.44772 15 9C15 9.55228 15.4477 10 16 10Z" fill="white"/>
  <path d="M8 14H16" stroke="white" stroke-width="2" stroke-linecap="round"/>
  <path d="M5 19L5 21" stroke="white" stroke-width="2" stroke-linecap="round"/>
  <path d="M19 19L19 21" stroke="white" stroke-width="2" stroke-linecap="round"/>
</svg>